<?xml version="1.0" standalone="no"?>
<!DOCTYPE svg PUBLIC "-//W3C//DTD SVG 20010904//EN"
 "http://www.w3.org/TR/2001/REC-SVG-20010904/DTD/svg10.dtd">
<svg version="1.0" xmlns="http://www.w3.org/2000/svg"
 width="64pt" height="64pt" viewBox="0 0 512.000000 512.000000"
 preserveAspectRatio="xMidYMid meet">

<g transform="translate(0.000000,512.000000) scale(0.100000,-0.100000)"
fill="#000000" stroke="none">
<path d="M3776 5104 c-262 -63 -452 -332 -432 -612 31 -422 457 -670 821 -479
91 48 187 150 234 250 50 106 63 161 62 272 -1 170 -53 297 -171 416 -142 143
-326 198 -514 153z m219 -328 c180 -83 199 -361 34 -471 -244 -161 -497 201
-291 417 76 79 164 98 257 54z"/>
<path d="M1685 4519 c-299 -44 -532 -253 -605 -543 -18 -72 -20 -112 -20 -434
0 -396 1 -401 69 -448 74 -50 178 -24 225 56 20 33 21 55 26 395 l5 360 32 68
c58 122 169 205 305 227 38 6 306 10 669 10 l606 0 33 23 c47 31 71 67 77 115
7 55 -26 123 -75 154 l-37 23 -625 1 c-344 1 -652 -2 -685 -7z"/>
<path d="M3456 3883 c-11 -3 -137 -62 -280 -132 -297 -145 -344 -179 -397
-287 l-32 -65 -28 -387 c-36 -498 -37 -533 -3 -600 33 -67 103 -128 167 -147
43 -13 189 -15 1021 -15 630 0 984 4 1008 10 96 27 189 130 203 225 4 23 -7
235 -23 471 -33 466 -35 477 -100 567 -51 71 -114 110 -388 242 -295 142 -299
143 -409 76 -97 -58 -180 -82 -286 -83 -107 0 -174 18 -297 83 -89 47 -112 53
-156 42z m119 -381 c105 -44 205 -63 325 -63 127 -1 219 18 340 66 l90 37 193
-94 c105 -52 199 -104 208 -114 13 -15 20 -85 38 -354 12 -184 24 -352 27
-372 l6 -38 -896 0 c-493 0 -896 3 -896 8 0 4 11 174 26 377 17 249 30 374 38
383 24 24 391 201 411 198 11 -2 52 -17 90 -34z"/>
<path d="M1093 2856 c-195 -48 -364 -218 -418 -421 -18 -71 -21 -222 -4 -291
47 -200 208 -372 399 -428 79 -24 219 -22 300 3 200 62 352 233 394 443 29
142 13 259 -54 395 -113 229 -377 357 -617 299z m192 -317 c60 -17 139 -100
159 -168 20 -68 20 -103 1 -169 -47 -156 -203 -228 -337 -155 -154 84 -176
330 -40 443 66 57 134 72 217 49z"/>
<path d="M3820 2027 c-19 -12 -43 -38 -54 -57 -19 -32 -21 -56 -26 -311 l-5
-275 -37 -76 c-55 -111 -142 -181 -263 -212 -47 -13 -122 -16 -373 -16 -302 0
-316 -1 -352 -21 -76 -43 -104 -150 -57 -220 12 -19 42 -44 67 -57 43 -21 53
-22 351 -22 398 0 482 14 636 104 166 98 294 273 337 463 24 106 24 589 0 640
-38 79 -152 110 -224 60z"/>
<path d="M760 1630 c-14 -4 -140 -64 -281 -133 -220 -108 -264 -133 -311 -179
-63 -62 -95 -122 -108 -204 -5 -33 -21 -239 -36 -459 -29 -438 -29 -442 26
-528 32 -50 100 -101 160 -117 22 -6 401 -10 1006 -10 1076 0 1032 -3 1112 66
23 19 54 56 69 82 38 65 39 143 5 609 l-29 392 -31 64 c-54 110 -99 142 -400
290 -318 157 -323 158 -437 89 -96 -59 -180 -83 -285 -83 -101 0 -184 20 -260
63 -132 74 -142 77 -200 58z m98 -364 c109 -54 215 -77 364 -77 124 0 205 17
331 67 l89 36 184 -89 c102 -48 196 -97 209 -108 24 -20 24 -26 50 -390 14
-203 25 -373 25 -377 0 -5 -403 -8 -896 -8 l-896 0 6 38 c3 20 15 188 27 372
18 270 25 339 38 354 17 20 385 206 408 206 8 0 35 -11 61 -24z"/>
</g>
</svg>
