<?xml version="1.0" standalone="no"?>
<!DOCTYPE svg PUBLIC "-//W3C//DTD SVG 20010904//EN"
 "http://www.w3.org/TR/2001/REC-SVG-20010904/DTD/svg10.dtd">
<svg version="1.0" xmlns="http://www.w3.org/2000/svg"
 width="64pt" height="64pt" viewBox="0 0 512.000000 512.000000"
 preserveAspectRatio="xMidYMid meet">

<g transform="translate(0.000000,512.000000) scale(0.100000,-0.100000)"
fill="#000000" stroke="none">
<path d="M3830 4805 c-106 -33 -160 -114 -160 -241 0 -86 -15 -124 -50 -124
-11 0 -53 18 -95 40 -63 33 -86 40 -133 40 -101 -1 -165 -44 -229 -155 l-37
-64 -478 -3 -478 -3 -27 -27 c-38 -39 -38 -97 0 -136 l27 -27 418 -3 418 -3
-4 -65 c-7 -108 30 -170 138 -235 104 -62 105 -91 6 -148 -135 -78 -181 -200
-123 -326 54 -114 170 -302 211 -341 84 -78 164 -84 292 -20 117 59 126 54
136 -67 8 -111 21 -147 67 -194 49 -51 92 -71 174 -79 l67 -7 0 -413 0 -414
-1885 0 -1885 0 0 1129 c0 1126 0 1128 21 1155 l20 26 527 0 c335 0 541 4 565
11 71 19 95 105 44 157 l-27 27 -563 0 c-439 0 -570 -3 -599 -13 -56 -20 -132
-93 -159 -154 l-24 -53 0 -1390 0 -1390 21 -45 c29 -61 78 -108 144 -139 l55
-26 698 -3 697 -3 0 -22 c0 -12 -11 -113 -24 -224 -28 -230 -42 -268 -111
-309 -32 -19 -61 -24 -148 -30 -84 -5 -114 -11 -132 -26 -51 -40 -38 -132 22
-157 21 -8 262 -11 920 -9 l891 3 26 24 c33 31 41 72 22 110 -22 42 -37 47
-156 55 -85 6 -113 12 -147 31 -73 43 -81 68 -112 323 l-27 227 651 5 c634 5
651 6 696 26 60 28 115 78 142 128 22 41 22 45 27 716 l5 675 66 7 c143 14
219 110 219 278 0 52 4 71 18 83 25 23 33 22 91 -12 55 -33 130 -61 162 -61
49 0 112 25 153 61 61 54 224 337 235 410 18 110 -30 194 -152 264 -85 49 -86
87 -4 133 116 66 160 130 159 232 -1 65 -10 86 -119 273 -87 150 -111 179
-167 206 -79 37 -161 27 -259 -31 -51 -30 -88 -36 -104 -15 -6 6 -13 53 -15
102 -6 106 -27 155 -88 208 -23 19 -61 40 -85 46 -64 16 -389 13 -445 -4z
m406 -189 c16 -12 20 -31 24 -115 5 -91 8 -104 36 -143 84 -120 220 -144 358
-62 32 19 68 34 79 32 23 -3 186 -279 187 -315 0 -16 -15 -30 -55 -53 -123
-70 -159 -124 -159 -235 -1 -110 37 -168 155 -239 34 -20 55 -40 57 -53 4 -24
-138 -277 -170 -305 -19 -17 -23 -16 -101 25 -71 37 -89 42 -146 42 -75 0
-120 -18 -171 -68 -51 -50 -70 -100 -70 -190 0 -123 10 -117 -198 -117 -125 0
-182 4 -190 12 -7 7 -12 43 -12 92 0 99 -27 165 -89 217 -47 41 -98 59 -167
59 -38 0 -67 -9 -132 -42 -66 -34 -86 -40 -100 -32 -31 20 -185 294 -177 316
3 7 28 26 56 42 117 65 162 132 162 242 0 91 -38 155 -124 211 -113 74 -106
66 -87 104 51 99 155 274 169 282 13 8 37 0 101 -32 67 -34 95 -43 138 -43 66
-1 123 22 168 65 57 54 75 101 80 202 3 67 8 93 20 103 24 18 331 17 358 -2z
m-268 -3149 l3 -128 -30 -29 -29 -30 -1822 0 c-1944 0 -1866 -2 -1884 45 -3 9
-6 75 -6 146 l0 129 1883 -2 1882 -3 3 -128z m-1514 -424 c3 -21 13 -101 21
-178 24 -210 35 -283 51 -320 8 -19 14 -39 14 -45 0 -11 -802 -15 -812 -4 -4
3 2 25 13 49 13 29 27 114 44 257 14 117 27 228 30 246 l6 32 314 0 313 0 6
-37z"/>
<path d="M3933 4116 c-147 -48 -260 -182 -281 -334 -29 -210 88 -392 292 -454
297 -90 589 190 512 492 -33 128 -105 216 -226 274 -57 27 -77 31 -160 33 -59
2 -111 -3 -137 -11z m224 -201 c117 -59 155 -205 80 -316 -119 -177 -397 -92
-397 122 0 167 166 269 317 194z"/>
<path d="M1720 4288 c-14 -7 -33 -30 -43 -50 -16 -33 -17 -40 -3 -71 16 -41
41 -57 86 -57 42 0 67 15 86 51 39 77 -49 166 -126 127z"/>
<path d="M874 3835 c-12 -7 -89 -86 -172 -174 -202 -213 -201 -190 -13 -389
76 -81 152 -159 167 -174 68 -62 164 -24 164 65 0 42 7 33 -194 244 l-49 52
122 130 c112 120 121 133 121 169 0 74 -86 120 -146 77z"/>
<path d="M1617 3828 c-29 -26 -391 -614 -400 -648 -10 -38 18 -89 58 -106 33
-14 40 -13 73 3 31 15 63 62 229 332 212 346 220 365 168 416 -32 33 -94 34
-128 3z"/>
<path d="M1993 3835 c-29 -20 -46 -75 -34 -106 5 -14 61 -79 126 -147 l117
-122 -119 -125 c-65 -69 -121 -137 -125 -152 -18 -67 55 -135 120 -112 38 13
339 328 348 363 12 48 -6 76 -122 199 -201 211 -207 217 -251 217 -21 0 -48
-7 -60 -15z"/>
<path d="M603 2796 c-86 -38 -66 -164 28 -181 19 -3 422 -4 897 -3 l864 3 29
33 c38 42 38 82 0 124 l-29 33 -879 2 c-731 2 -883 0 -910 -11z"/>
<path d="M2763 2795 c-37 -16 -53 -42 -53 -87 0 -44 22 -74 64 -88 62 -20 121
23 121 91 0 68 -68 112 -132 84z"/>
<path d="M604 2290 c-57 -23 -73 -109 -28 -154 l27 -26 652 0 653 0 26 31 c43
51 32 115 -24 144 -25 13 -116 15 -657 14 -345 0 -638 -4 -649 -9z"/>
<path d="M2364 2290 c-58 -23 -73 -109 -28 -154 l27 -26 467 0 467 0 27 26
c35 35 36 92 2 131 l-24 28 -459 2 c-252 1 -468 -2 -479 -7z"/>
</g>
</svg>
