<?xml version="1.0" standalone="no"?>
<!DOCTYPE svg PUBLIC "-//W3C//DTD SVG 20010904//EN"
 "http://www.w3.org/TR/2001/REC-SVG-20010904/DTD/svg10.dtd">
<svg version="1.0" xmlns="http://www.w3.org/2000/svg"
 width="64pt" height="64pt" viewBox="0 0 512.000000 512.000000"
 preserveAspectRatio="xMidYMid meet">

<g transform="translate(0.000000,512.000000) scale(0.100000,-0.100000)"
fill="#000000" stroke="none">
<path d="M415 4696 c-46 -20 -94 -64 -118 -110 l-22 -41 0 -1405 0 -1405 22
-40 c25 -47 64 -85 113 -111 33 -18 79 -19 943 -22 l907 -3 0 -279 0 -280
-139 0 c-154 0 -180 -6 -229 -53 -44 -43 -52 -79 -52 -251 0 -179 13 -219 84
-261 l43 -25 593 0 593 0 43 25 c71 42 84 82 84 261 0 172 -8 208 -52 251 -49
47 -75 53 -229 53 l-139 0 0 280 0 279 908 3 907 3 40 22 c47 25 85 64 111
113 18 34 19 88 19 1440 l0 1405 -22 41 c-25 47 -73 91 -120 111 -47 19 -4243
19 -4288 -1z m4260 -90 c19 -8 44 -30 55 -48 20 -33 20 -47 20 -1155 l0 -1123
-2190 0 -2190 0 0 1123 c0 1107 0 1122 20 1155 40 66 -120 61 2168 62 1791 0
2087 -2 2117 -14z m75 -2641 l0 -225 -34 -38 -34 -37 -2122 0 -2122 0 -34 37
-34 38 0 225 0 225 2190 0 2190 0 0 -225z m-1990 -685 l0 -280 -200 0 -200 0
0 280 0 280 200 0 200 0 0 -280z m397 -394 l28 -24 0 -157 0 -157 -28 -24 -28
-24 -569 0 -569 0 -28 24 -28 24 0 157 0 157 28 24 28 24 569 0 569 0 28 -24z"/>
<path d="M1073 4340 c-52 -31 -58 -51 -63 -220 l-5 -155 -55 -5 c-109 -10
-131 -44 -155 -242 -17 -132 -17 -140 1 -185 16 -43 19 -94 24 -473 6 -472 4
-458 73 -500 31 -19 56 -20 790 -20 835 0 808 -2 847 62 19 32 20 49 20 440 0
384 1 410 20 458 24 61 25 109 5 258 -16 122 -20 135 -59 171 -20 19 -40 26
-86 29 l-60 4 0 147 c0 166 -10 200 -71 233 -31 17 -71 18 -614 18 -557 0
-581 -1 -612 -20z m1191 -89 c14 -15 16 -38 14 -152 l-3 -134 -587 -2 -588 -3
0 143 c0 98 4 147 12 155 9 9 150 12 573 12 535 0 563 -1 579 -19z m-1074
-517 c0 -142 -4 -159 -49 -207 -38 -41 -78 -59 -131 -59 -77 0 -131 49 -132
121 -1 76 25 253 39 267 11 11 46 14 144 14 l129 0 0 -136z m450 4 c-1 -185
-27 -238 -135 -267 -69 -18 -136 6 -182 66 -27 35 -28 40 -31 185 l-3 148 175
0 176 0 0 -132z m448 -11 c-3 -133 -5 -146 -28 -180 -61 -89 -180 -108 -260
-41 -53 45 -61 74 -67 225 l-6 139 182 0 183 0 -4 -143z m371 130 c15 -19 44
-233 38 -281 -10 -74 -93 -127 -167 -106 -56 16 -106 56 -129 102 -18 38 -21
62 -21 171 l0 127 134 0 c99 0 136 -3 145 -13z m-1072 -473 c37 -11 72 -14
107 -10 58 8 145 53 173 90 l18 24 46 -43 c107 -100 268 -96 373 9 l34 34 27
-28 c62 -65 171 -100 253 -82 l42 10 0 -369 c0 -354 -1 -369 -19 -379 -13 -6
-152 -10 -385 -10 l-365 0 -3 279 c-3 264 -4 281 -24 307 -49 67 -58 69 -253
69 -196 0 -213 -4 -251 -68 -19 -30 -20 -52 -20 -309 l0 -278 -99 0 c-92 0
-101 2 -115 22 -14 19 -16 73 -16 381 0 334 1 359 17 353 81 -32 187 -8 259
58 l49 44 49 -44 c32 -29 67 -49 103 -60z m191 -206 c9 -9 12 -85 12 -280 l0
-268 -180 0 -180 0 0 268 c0 195 3 271 12 280 8 8 60 12 168 12 108 0 160 -4
168 -12z"/>
<path d="M1915 3281 c-43 -11 -70 -30 -91 -65 -28 -45 -28 -285 -1 -334 31
-57 80 -72 235 -72 149 0 182 9 226 60 l27 33 -3 153 -3 154 -31 31 c-17 16
-48 34 -70 39 -46 11 -245 11 -289 1z m293 -103 c8 -8 12 -51 12 -129 0 -96
-3 -119 -17 -130 -25 -21 -280 -20 -293 1 -14 23 -13 243 2 258 17 17 279 17
296 0z"/>
<path d="M3042 4348 c-7 -7 -12 -21 -12 -33 0 -46 -7 -45 605 -45 612 0 605
-1 605 45 0 12 -5 26 -12 33 -17 17 -1169 17 -1186 0z"/>
<path d="M3053 4070 c-30 -12 -32 -64 -4 -80 13 -6 215 -10 586 -10 371 0 573
4 586 10 20 11 25 45 9 70 -8 13 -85 15 -582 17 -330 1 -583 -2 -595 -7z"/>
<path d="M3041 3776 c-7 -8 -11 -27 -9 -43 l3 -28 589 -3 c426 -1 593 1 602 9
20 17 17 57 -5 69 -13 6 -217 10 -594 10 -488 0 -576 -2 -586 -14z"/>
<path d="M3025 3456 c-41 -18 -83 -69 -90 -109 -4 -18 -5 -116 -3 -219 3 -204
6 -213 72 -262 26 -20 43 -21 271 -24 l244 -3 -6 -49 c-10 -85 22 -100 107
-50 28 17 54 30 58 30 4 0 36 -51 72 -113 48 -81 71 -113 87 -115 27 -4 251
126 259 150 3 10 -10 45 -31 83 l-37 65 91 0 c109 0 147 14 187 66 l29 37 3
196 c3 188 2 198 -20 241 -17 33 -35 51 -68 68 l-44 22 -576 0 c-455 -1 -581
-4 -605 -14z m1202 -99 c16 -16 18 -38 18 -203 0 -234 7 -224 -162 -224 -68 0
-112 4 -108 9 3 6 30 24 59 40 59 34 74 63 47 90 -28 28 -451 193 -478 187
-26 -7 -27 -10 -48 -166 -9 -63 -18 -125 -20 -137 l-5 -23 -231 0 -230 0 -24
25 c-25 24 -25 27 -25 200 0 174 0 176 25 201 l25 24 569 -2 c532 -3 571 -4
588 -21z m-302 -332 c-41 -24 -65 -48 -65 -63 0 -16 50 -110 108 -203 l22 -37
-62 -35 c-74 -42 -61 -50 -144 95 -60 107 -73 115 -134 83 -29 -15 -30 -15
-30 7 0 25 29 246 35 265 3 8 52 -8 146 -45 114 -46 138 -59 124 -67z"/>
<path d="M2211 1956 c-7 -8 -11 -27 -9 -43 l3 -28 355 0 355 0 3 28 c7 58 10
57 -358 57 -282 0 -340 -2 -349 -14z"/>
</g>
</svg>
