<?xml version="1.0" standalone="no"?>
<!DOCTYPE svg PUBLIC "-//W3C//DTD SVG 20010904//EN"
 "http://www.w3.org/TR/2001/REC-SVG-20010904/DTD/svg10.dtd">
<svg version="1.0" xmlns="http://www.w3.org/2000/svg"
 width="64pt" height="64pt" viewBox="0 0 512.000000 512.000000"
 preserveAspectRatio="xMidYMid meet">

<g transform="translate(0.000000,512.000000) scale(0.100000,-0.100000)"
fill="#000000" stroke="none">
<path d="M210 4947 c-51 -26 -50 -3 -47 -879 l2 -817 23 -23 c22 -22 29 -23
262 -28 l239 -5 111 -148 c114 -152 140 -174 185 -157 14 5 71 71 135 157
l111 148 239 5 c233 5 240 6 262 28 l23 23 0 829 0 829 -23 23 -23 23 -737 2
c-579 2 -742 0 -762 -10z m1390 -867 l0 -720 -199 0 c-110 0 -211 -4 -225 -10
-15 -5 -63 -61 -118 -134 -51 -69 -95 -125 -98 -125 -3 0 -47 56 -98 125 -55
73 -103 129 -118 134 -14 6 -115 10 -225 10 l-199 0 0 720 0 720 640 0 640 0
0 -720z"/>
<path d="M480 4560 l0 -80 80 0 80 0 0 80 0 80 -80 0 -80 0 0 -80z"/>
<path d="M800 4560 l0 -80 160 0 160 0 0 80 0 80 -160 0 -160 0 0 -80z"/>
<path d="M1280 4560 l0 -80 80 0 80 0 0 80 0 80 -80 0 -80 0 0 -80z"/>
<path d="M480 4240 l0 -80 480 0 480 0 0 80 0 80 -480 0 -480 0 0 -80z"/>
<path d="M480 3920 l0 -80 480 0 480 0 0 80 0 80 -480 0 -480 0 0 -80z"/>
<path d="M480 3600 l0 -80 480 0 480 0 0 80 0 80 -480 0 -480 0 0 -80z"/>
<path d="M3410 4947 c-51 -26 -50 -3 -47 -879 l2 -817 23 -23 c22 -22 29 -23
262 -28 l239 -5 111 -148 c114 -152 140 -174 185 -157 14 5 71 71 135 157
l111 148 239 5 c233 5 240 6 262 28 l23 23 0 829 0 829 -23 23 -23 23 -737 2
c-579 2 -742 0 -762 -10z m1390 -867 l0 -720 -199 0 c-110 0 -211 -4 -225 -10
-15 -5 -63 -61 -118 -134 -51 -69 -95 -125 -98 -125 -3 0 -47 56 -98 125 -55
73 -103 129 -118 134 -14 6 -115 10 -225 10 l-199 0 0 720 0 720 640 0 640 0
0 -720z"/>
<path d="M3680 4560 l0 -80 480 0 480 0 0 80 0 80 -480 0 -480 0 0 -80z"/>
<path d="M3680 4240 l0 -80 480 0 480 0 0 80 0 80 -480 0 -480 0 0 -80z"/>
<path d="M3680 3920 l0 -80 480 0 480 0 0 80 0 80 -480 0 -480 0 0 -80z"/>
<path d="M3680 3600 l0 -80 80 0 80 0 0 80 0 80 -80 0 -80 0 0 -80z"/>
<path d="M4000 3600 l0 -80 160 0 160 0 0 80 0 80 -160 0 -160 0 0 -80z"/>
<path d="M4480 3600 l0 -80 80 0 80 0 0 80 0 80 -80 0 -80 0 0 -80z"/>
<path d="M2464 3985 c-196 -42 -343 -199 -374 -397 -21 -134 30 -296 124 -393
25 -27 46 -51 45 -54 0 -3 -31 -21 -69 -40 -138 -67 -267 -198 -340 -346 -62
-126 -80 -212 -87 -416 l-6 -177 -54 -4 c-91 -8 -92 -11 -119 -270 -13 -123
-24 -227 -24 -232 0 -5 -24 14 -54 42 -58 55 -144 114 -212 143 l-42 19 48 50
c63 65 117 174 129 263 56 406 -392 689 -734 461 -149 -98 -234 -287 -206
-458 15 -92 67 -201 125 -261 25 -27 46 -51 45 -54 0 -3 -31 -21 -69 -40 -188
-92 -340 -284 -402 -506 -21 -78 -22 -95 -22 -592 l-1 -512 23 -23 23 -23
2349 0 2349 0 23 23 23 23 -1 512 c0 497 -1 514 -22 592 -65 234 -210 413
-419 519 -29 14 -53 28 -53 29 0 2 21 25 46 53 219 235 149 616 -140 754 -342
163 -721 -116 -675 -495 11 -91 62 -195 129 -263 l50 -51 -44 -19 c-65 -29
-152 -87 -207 -139 -27 -25 -51 -44 -54 -42 -2 3 -14 99 -26 214 -12 116 -26
221 -33 235 -14 32 -51 50 -102 50 l-41 0 -6 178 c-7 205 -25 291 -87 417 -73
146 -197 274 -336 345 -38 19 -71 36 -73 37 -2 1 18 26 44 55 253 280 114 716
-253 794 -81 17 -108 16 -188 -1z m241 -177 c60 -31 114 -86 146 -148 20 -38
24 -60 24 -140 0 -84 -3 -101 -27 -145 -32 -60 -87 -114 -148 -146 -38 -20
-60 -24 -140 -24 -80 0 -102 4 -140 24 -61 32 -116 86 -148 146 -24 44 -27 61
-27 145 0 108 17 154 84 223 67 72 136 98 246 93 62 -2 91 -8 130 -28z m25
-789 c218 -60 390 -232 449 -449 17 -62 21 -104 21 -242 l0 -168 -70 0 c-42 0
-70 4 -70 10 0 6 14 99 30 207 28 181 29 197 15 220 -9 13 -27 28 -41 33 -34
13 -974 13 -1008 0 -14 -5 -32 -20 -41 -33 -14 -23 -13 -39 15 -220 16 -108
30 -201 30 -207 0 -6 -28 -10 -70 -10 l-70 0 0 168 c0 139 4 180 21 242 60
217 222 382 439 447 102 30 246 31 350 2z m-1625 -491 c60 -31 114 -86 146
-148 20 -38 24 -60 24 -140 0 -84 -3 -101 -27 -145 -32 -60 -87 -114 -148
-146 -38 -20 -60 -24 -140 -24 -80 0 -102 4 -140 24 -61 32 -116 86 -148 146
-24 44 -27 61 -27 145 0 108 17 154 84 223 67 72 136 98 246 93 62 -2 91 -8
130 -28z m3200 0 c60 -31 114 -86 146 -148 20 -38 24 -60 24 -140 0 -84 -3
-101 -27 -145 -32 -60 -87 -114 -148 -146 -38 -20 -60 -24 -140 -24 -80 0
-102 4 -140 24 -61 32 -116 86 -148 146 -24 44 -27 61 -27 145 0 108 17 154
84 223 67 72 136 98 246 93 62 -2 91 -8 130 -28z m-1355 -53 c0 -2 -16 -108
-35 -235 -19 -127 -35 -233 -35 -235 0 -3 -144 -5 -320 -5 -176 0 -320 2 -320
5 0 2 -16 108 -35 235 -19 127 -35 233 -35 235 0 3 176 5 390 5 215 0 390 -2
390 -5z m-858 -528 c9 -64 30 -95 70 -102 18 -3 207 -5 420 -3 444 3 420 -2
442 99 l12 54 167 3 166 2 6 -32 c5 -35 56 -528 76 -736 6 -69 7 -128 3 -132
-5 -5 -90 -41 -189 -80 -99 -39 -189 -80 -200 -91 -18 -17 -20 -35 -23 -157
-4 -221 -2 -223 263 -181 135 21 191 26 196 18 3 -6 9 -54 13 -107 4 -54 9
-116 12 -139 l6 -43 -972 0 -972 0 6 43 c3 23 8 85 12 139 4 53 10 101 14 107
5 9 51 5 171 -14 208 -33 235 -33 263 -6 20 20 21 31 21 171 0 136 -2 151 -20
169 -11 11 -101 52 -200 91 -99 39 -184 75 -188 79 -6 6 58 706 78 859 l6 42
167 -2 167 -3 7 -48z m-928 -217 c135 -46 274 -157 343 -272 l31 -53 -13 -118
c-7 -65 -14 -119 -16 -121 -2 -2 -53 16 -114 39 l-110 44 -3 95 -3 96 -80 0
-81 0 4 -135 c3 -119 5 -137 23 -154 11 -11 189 -87 395 -169 l375 -150 3 -51
3 -52 -33 6 c-18 3 -208 32 -423 65 -214 33 -405 62 -423 65 -30 6 -37 15
-102 145 l-70 140 -65 -32 c-36 -18 -65 -36 -65 -40 0 -17 159 -325 174 -337
9 -7 135 -32 281 -54 l265 -41 0 -36 c0 -19 -5 -92 -11 -162 l-12 -128 -559 0
-558 0 0 448 c0 422 1 452 21 522 60 217 221 380 439 447 102 31 280 28 384
-7z m3166 9 c218 -60 390 -232 449 -449 20 -70 21 -101 21 -522 l0 -448 -560
0 -560 0 -1 33 c0 17 -6 89 -13 160 -10 112 -10 128 4 131 8 3 125 21 260 42
135 20 255 43 268 51 19 12 182 316 182 341 0 4 -29 22 -65 40 l-65 32 -70
-140 c-54 -107 -75 -141 -92 -145 -13 -2 -203 -32 -423 -65 -220 -33 -415 -62
-433 -65 l-33 -6 3 52 3 51 375 150 c206 82 384 158 395 169 18 17 20 35 23
154 l4 135 -81 0 -80 0 -3 -96 -3 -96 -109 -44 c-60 -24 -111 -42 -113 -40 -2
2 -9 60 -15 128 l-11 125 37 56 c84 126 239 237 381 271 92 22 236 20 325 -5z"/>
</g>
</svg>
