<?xml version="1.0" standalone="no"?>
<!DOCTYPE svg PUBLIC "-//W3C//DTD SVG 20010904//EN"
 "http://www.w3.org/TR/2001/REC-SVG-20010904/DTD/svg10.dtd">
<svg version="1.0" xmlns="http://www.w3.org/2000/svg"
 width="64pt" height="64pt" viewBox="0 0 512.000000 512.000000"
 preserveAspectRatio="xMidYMid meet">

<g transform="translate(0.000000,512.000000) scale(0.100000,-0.100000)"
fill="#000000" stroke="none">
<path d="M803 5088 c-5 -7 -20 -53 -33 -103 -35 -136 -86 -280 -137 -384 -48
-97 -49 -111 -10 -135 12 -8 22 -8 35 0 39 24 141 254 184 420 13 46 27 83 33
81 20 -7 85 -145 101 -216 21 -92 15 -141 -33 -286 -32 -98 -35 -117 -25 -140
24 -52 50 -55 430 -55 l349 0 21 -23 c30 -32 29 -81 -3 -112 -24 -25 -26 -25
-203 -25 -192 0 -202 -3 -202 -52 0 -41 28 -48 185 -48 132 0 134 0 154 -26
23 -30 27 -71 8 -95 -25 -33 -55 -39 -202 -39 l-145 0 -12 -26 c-23 -50 -5
-58 132 -64 118 -5 123 -6 146 -33 30 -36 30 -68 0 -104 -24 -28 -25 -28 -163
-31 -76 -2 -144 -8 -150 -14 -16 -13 -17 -50 -1 -66 8 -8 45 -12 99 -12 48 0
99 -4 114 -10 55 -21 63 -113 11 -143 -15 -9 -122 -13 -380 -17 -355 -5 -359
-5 -367 -26 -5 -14 -2 -29 7 -43 15 -21 20 -21 374 -21 229 0 369 4 387 11 88
33 134 136 102 227 -10 29 -8 34 25 65 19 19 40 46 46 61 13 35 13 109 -1 139
-9 20 -6 28 29 63 61 61 73 130 38 214 -4 10 3 21 23 33 34 20 71 90 71 135 0
38 -23 97 -48 126 -9 10 -35 27 -57 37 -36 17 -71 19 -379 19 l-338 0 5 23 c3
12 17 60 31 106 51 166 26 331 -73 483 -26 41 -61 84 -76 96 -30 24 -87 29
-102 10z"/>
<path d="M2391 4884 c-225 -60 -377 -292 -341 -521 60 -385 524 -538 800 -263
255 254 134 694 -215 785 -73 19 -173 18 -244 -1z m190 -84 c119 -23 224 -105
277 -218 23 -49 27 -70 27 -152 0 -82 -4 -103 -27 -152 -73 -157 -244 -249
-402 -218 -128 25 -224 97 -278 208 -30 61 -33 74 -33 162 0 88 3 101 33 162
51 105 155 186 266 208 58 11 76 11 137 0z"/>
<path d="M2490 4645 c0 -17 -9 -29 -30 -40 -31 -16 -60 -61 -60 -94 0 -29 37
-68 94 -99 59 -32 76 -54 60 -79 -13 -22 -84 -29 -115 -13 -17 10 -23 9 -30
-1 -19 -29 -5 -54 34 -63 32 -8 37 -13 37 -38 0 -24 4 -28 30 -28 27 0 30 3
30 30 0 22 6 33 23 39 40 15 62 50 62 96 0 53 -24 82 -95 115 -53 25 -70 51
-49 76 13 16 65 16 100 0 11 -5 19 1 28 20 14 31 16 28 -31 47 -27 11 -38 22
-38 36 0 16 -6 21 -25 21 -20 0 -25 -5 -25 -25z"/>
<path d="M3357 4862 c-16 -17 -17 -80 -17 -704 0 -651 1 -686 18 -701 17 -16
91 -17 865 -17 755 0 847 2 861 16 14 13 16 49 16 239 0 220 0 224 -22 239
-20 14 -115 16 -830 16 l-808 0 0 415 0 415 785 0 785 0 0 -243 c0 -255 2
-267 45 -267 44 0 45 10 45 301 0 239 -2 280 -16 293 -14 14 -106 16 -863 16
-809 0 -849 -1 -864 -18z m1653 -1167 l0 -155 -785 0 -785 0 0 155 0 155 785
0 785 0 0 -155z"/>
<path d="M4803 3789 c-13 -5 -23 -15 -23 -24 0 -8 -11 -20 -24 -24 -41 -16
-46 -73 -6 -86 10 -3 26 -17 35 -31 20 -31 65 -30 79 2 5 11 19 25 30 30 30
13 29 66 -1 79 -12 5 -24 17 -26 26 -7 24 -38 38 -64 28z"/>
<path d="M4037 3760 c-21 -16 -40 -20 -110 -20 -104 0 -117 -4 -117 -39 0 -44
16 -51 112 -51 75 0 93 -3 118 -21 32 -24 88 -21 110 6 10 12 51 15 234 15
233 0 246 2 246 45 0 43 -13 45 -243 45 -204 0 -221 1 -244 20 -14 11 -38 20
-53 20 -15 0 -39 -9 -53 -20z"/>
<path d="M3530 3724 c-10 -11 -11 -23 -4 -42 9 -26 13 -27 88 -30 84 -3 106 6
106 42 0 37 -19 46 -101 46 -57 0 -80 -4 -89 -16z"/>
<path d="M4169 4527 c-97 -50 -186 -101 -198 -111 -30 -27 -28 -79 3 -104 47
-37 374 -202 400 -202 14 0 35 9 46 20 19 19 20 33 20 233 0 210 0 214 -23
235 -13 12 -34 22 -48 22 -13 0 -103 -42 -200 -93z m181 -155 c0 -76 -2 -141
-5 -144 -8 -8 -257 125 -258 137 0 9 236 142 256 144 4 1 7 -61 7 -137z"/>
<path d="M16 4358 c-14 -20 -16 -87 -16 -536 0 -335 4 -520 10 -533 10 -18 23
-19 233 -19 160 0 226 3 235 12 9 9 12 144 12 545 0 516 -1 533 -19 543 -12 6
-104 10 -230 10 -206 0 -210 0 -225 -22z m384 -538 l0 -460 -150 0 -150 0 0
460 0 460 150 0 150 0 0 -460z"/>
<path d="M196 3618 c-52 -74 48 -151 104 -81 38 48 8 103 -56 103 -23 0 -38
-7 -48 -22z"/>
<path d="M5011 4151 c-25 -25 -27 -49 -5 -79 24 -35 84 -28 103 12 12 25 11
31 -6 55 -26 33 -65 39 -92 12z"/>
<path d="M2501 3451 c-22 -24 -46 -89 -116 -325 l-89 -296 -594 0 -594 0 -34
29 c-47 42 -109 76 -184 102 -86 29 -239 31 -320 4 -198 -65 -330 -199 -385
-390 -23 -77 -23 -213 0 -291 54 -187 210 -342 391 -388 88 -23 227 -21 306 4
34 11 64 20 66 20 1 0 2 -246 2 -548 0 -479 2 -550 16 -570 17 -24 53 -29 72
-10 9 9 12 156 12 598 l0 586 68 70 c45 45 80 92 100 135 34 70 62 173 62 227
l0 32 360 0 c198 0 360 -4 360 -8 0 -10 -76 -67 -154 -117 -32 -20 -117 -64
-190 -97 -158 -73 -205 -105 -250 -172 -147 -217 -28 -499 232 -547 81 -15
148 1 314 77 170 79 253 106 378 128 116 20 302 20 394 1 39 -8 200 -71 373
-145 176 -75 319 -130 337 -130 69 0 116 55 136 161 33 172 -30 530 -145 832
-7 16 7 17 209 17 l216 0 0 -819 c0 -885 -2 -847 52 -839 48 7 48 -1 48 873 0
641 -3 825 -13 845 l-13 25 -272 3 -272 2 -45 97 c-25 53 -45 98 -45 99 0 2
176 4 391 4 l391 0 29 -29 29 -29 0 -161 c0 -169 6 -191 50 -191 44 0 50 22
50 184 0 201 -18 253 -103 299 -41 22 -51 22 -471 27 l-428 5 -58 92 c-151
240 -344 450 -480 522 -80 43 -150 44 -189 2z m178 -108 c215 -141 493 -544
646 -937 60 -153 112 -335 137 -481 36 -216 17 -418 -40 -398 -69 25 -175 137
-291 308 -68 100 -201 323 -201 337 0 4 30 23 68 42 77 39 93 54 121 116 37
80 22 171 -37 233 -70 75 -172 88 -280 37 -57 -27 -63 -28 -69 -12 -3 9 -15
40 -26 67 -86 220 -146 450 -154 591 -9 157 11 173 126 97z m-165 -413 c103
-372 346 -884 567 -1193 32 -45 57 -83 55 -84 -2 -2 -72 26 -157 62 -85 37
-181 73 -214 81 -89 21 -257 28 -360 15 -49 -6 -110 -14 -135 -17 l-45 -6 -52
79 c-67 101 -115 199 -146 298 -40 129 -41 123 38 192 203 175 287 310 370
598 15 50 29 97 32 105 6 17 9 10 47 -130z m-1673 -56 c139 -42 236 -123 297
-251 36 -76 37 -81 37 -194 0 -113 -1 -116 -38 -193 -99 -200 -315 -305 -520
-251 -94 24 -149 56 -218 124 -184 184 -186 462 -3 645 117 117 294 165 445
120z m1387 -185 c-12 -22 -43 -66 -68 -97 l-46 -57 -421 -3 -422 -2 -16 57
c-9 32 -25 74 -36 95 -10 20 -19 40 -19 43 0 3 237 5 526 5 l525 0 -23 -41z
m737 -159 c48 -18 75 -58 75 -110 0 -59 -24 -91 -91 -125 -61 -32 -65 -31 -84
5 -15 29 -15 31 10 42 37 17 44 56 15 80 -13 11 -30 16 -39 12 -40 -16 -46
-15 -58 17 -7 18 -12 34 -10 35 1 1 27 14 57 27 61 28 87 32 125 17z m-1040
-357 c35 -127 87 -240 159 -347 26 -38 45 -70 44 -71 -19 -10 -206 -85 -213
-85 -14 0 -86 110 -129 197 -38 77 -86 213 -86 244 0 13 27 33 93 67 50 27 97
50 104 51 6 0 19 -25 28 -56z m-296 -170 c27 -92 94 -234 150 -318 22 -33 37
-63 33 -66 -16 -15 -89 -32 -136 -31 -97 1 -159 41 -205 133 -42 85 -43 163
-3 240 26 51 99 119 126 119 6 0 22 -35 35 -77z"/>
<path d="M472 2670 c-47 -29 -65 -78 -60 -163 4 -65 6 -71 41 -103 89 -82 207
-11 207 125 0 130 -92 199 -188 141z m92 -72 c19 -26 21 -96 4 -133 -14 -30
-53 -34 -68 -6 -13 25 -13 102 0 135 12 32 43 34 64 4z"/>
<path d="M688 2430 l-146 -260 38 0 38 0 134 238 c75 130 140 247 147 260 11
21 10 22 -26 22 l-38 -1 -147 -259z"/>
<path d="M835 2459 c-78 -68 -69 -223 15 -273 87 -51 190 27 190 144 0 46 -22
103 -50 132 -41 41 -106 40 -155 -3z m106 -55 c8 -10 14 -40 14 -74 0 -61 -15
-90 -45 -90 -25 0 -38 20 -46 66 -12 79 39 144 77 98z"/>
<path d="M1803 2117 c-47 -23 -60 -46 -43 -77 14 -26 49 -26 100 0 44 22 53
55 24 84 -20 20 -30 19 -81 -7z"/>
<path d="M1867 1978 c-58 -25 -73 -61 -38 -89 21 -17 25 -17 59 -3 21 9 43 18
50 21 15 6 27 48 17 62 -16 27 -41 29 -88 9z"/>
<path d="M1943 1839 c-46 -21 -60 -47 -43 -79 13 -25 49 -26 93 -4 50 26 61
58 31 88 -19 20 -28 19 -81 -5z"/>
<path d="M4142 2204 c-26 -18 -30 -65 -6 -88 8 -9 28 -16 44 -16 36 0 60 24
60 60 0 30 -30 60 -60 60 -9 0 -26 -7 -38 -16z"/>
<path d="M4380 1919 c-74 -14 -168 -67 -230 -129 -295 -295 -87 -800 330 -800
188 0 343 97 427 267 33 67 38 85 41 170 5 117 -14 199 -68 281 -110 169 -301
250 -500 211z m264 -123 c79 -39 140 -102 179 -184 27 -58 32 -78 32 -147 0
-137 -55 -242 -165 -317 -188 -129 -445 -58 -547 150 -25 51 -28 67 -28 162 0
96 3 110 28 158 76 145 192 214 352 210 76 -3 99 -8 149 -32z"/>
<path d="M4460 1680 c0 -23 -7 -33 -30 -45 -36 -19 -50 -43 -50 -88 0 -46 25
-75 91 -106 57 -27 73 -57 49 -87 -15 -17 -69 -18 -105 -2 -29 13 -31 12 -40
-24 -6 -24 -4 -28 34 -39 35 -11 41 -16 41 -41 0 -24 4 -28 30 -28 27 0 30 3
30 30 0 23 6 33 24 40 33 12 66 58 66 92 0 50 -26 84 -85 114 -61 29 -78 50
-64 77 11 19 69 23 100 7 16 -9 21 -7 29 15 13 33 7 42 -30 50 -25 5 -30 11
-30 36 0 26 -4 29 -30 29 -27 0 -30 -3 -30 -30z"/>
<path d="M682 1648 c-9 -9 -12 -144 -12 -545 l0 -533 -91 0 c-116 0 -129 -7
-129 -68 0 -202 151 -399 360 -468 52 -18 132 -19 1580 -22 989 -2 1555 1
1610 7 228 28 409 203 442 430 11 73 10 82 -7 101 -16 17 -30 20 -112 20 l-93
0 0 146 c0 81 -5 154 -10 165 -14 26 -66 26 -80 0 -5 -11 -10 -84 -10 -165 l0
-146 -1680 0 -1680 0 0 519 c0 314 -4 530 -10 545 -7 20 -17 26 -38 26 -15 0
-33 -5 -40 -12z m3663 -1210 c-11 -51 -51 -136 -87 -180 -43 -55 -134 -112
-210 -132 -58 -16 -194 -17 -1629 -14 l-1565 3 -76 38 c-116 57 -207 171 -225
282 l-6 35 1902 0 1903 0 -7 -32z"/>
<path d="M2262 324 c-26 -18 -28 -46 -6 -68 13 -13 45 -16 198 -16 164 0 185
2 199 18 22 24 21 38 -3 62 -18 18 -33 20 -193 20 -140 0 -177 -3 -195 -16z"/>
<path d="M2353 1559 c-47 -18 -31 -53 142 -309 91 -134 165 -247 165 -250 0
-8 -261 -130 -277 -130 -6 0 -84 129 -173 288 -90 158 -168 290 -174 295 -22
15 -60 2 -69 -23 -8 -22 17 -70 176 -350 109 -193 191 -326 200 -328 16 -3
364 152 415 184 12 8 22 25 22 38 0 27 -361 570 -388 585 -10 5 -27 5 -39 0z"/>
<path d="M2433 1129 c-47 -17 -37 -93 13 -105 32 -8 64 20 64 56 0 41 -37 64
-77 49z"/>
</g>
</svg>
