<?xml version="1.0" standalone="no"?>
<!DOCTYPE svg PUBLIC "-//W3C//DTD SVG 20010904//EN"
 "http://www.w3.org/TR/2001/REC-SVG-20010904/DTD/svg10.dtd">
<svg version="1.0" xmlns="http://www.w3.org/2000/svg"
 width="64pt" height="64pt" viewBox="0 0 512.000000 512.000000"
 preserveAspectRatio="xMidYMid meet">

<g transform="translate(0.000000,512.000000) scale(0.100000,-0.100000)"
fill="#000000" stroke="none">
<path d="M477 4519 c-84 -20 -171 -90 -215 -174 l-27 -50 -3 -1567 -2 -1568
-99 0 c-137 0 -135 3 -128 -169 3 -92 10 -152 22 -184 23 -65 103 -150 173
-184 l57 -28 2300 0 2300 0 62 29 c72 33 134 95 166 164 19 40 22 70 25 201 3
121 1 156 -10 162 -7 5 -57 9 -110 9 l-98 0 -2 1568 -3 1567 -27 50 c-32 62
-103 129 -166 158 l-47 22 -2065 2 c-1189 0 -2081 -3 -2103 -8z m4183 -80 c52
-24 97 -65 128 -118 l27 -46 3 -1557 2 -1558 -2260 0 -2260 0 2 1558 3 1557
22 40 c37 70 103 120 174 134 24 5 962 8 2084 7 1846 -1 2043 -3 2075 -17z
m-2860 -3439 c0 -47 6 -95 14 -115 29 -67 2 -65 746 -65 744 0 717 -2 746 65
8 20 14 68 14 115 l0 80 860 0 860 0 0 -107 c0 -126 -15 -169 -80 -231 -80
-78 131 -72 -2401 -72 -2490 0 -2307 -5 -2389 60 -21 17 -50 54 -64 82 -23 46
-26 64 -26 160 l0 108 860 0 860 0 0 -80z m1450 3 c0 -125 73 -113 -688 -113
-596 0 -657 2 -674 17 -14 13 -18 31 -18 95 l0 78 690 0 690 0 0 -77z"/>
<path d="M562 4202 c-10 -7 -12 -293 -10 -1398 l3 -1389 2005 0 2005 0 3 1384
c1 1014 -1 1387 -9 1397 -10 12 -337 14 -1998 14 -1092 0 -1992 -4 -1999 -8z
m3938 -1392 l0 -1330 -1940 0 -1940 0 0 1330 0 1330 1940 0 1940 0 0 -1330z"/>
<path d="M2413 3885 c-177 -48 -318 -182 -379 -361 -25 -73 -28 -94 -32 -286
-4 -199 -5 -208 -24 -208 -37 0 -86 -31 -102 -65 -12 -24 -16 -65 -16 -154 l0
-121 -52 0 -53 1 -80 131 c-133 217 -124 208 -198 208 -62 0 -64 0 -80 35 -23
49 -70 75 -133 75 -67 0 -112 -30 -138 -92 -26 -62 -16 -110 33 -159 72 -72
167 -62 231 24 31 41 39 47 72 47 37 0 37 0 134 -157 53 -87 104 -166 112
-175 12 -14 31 -18 84 -18 l68 0 0 -75 0 -75 -124 0 -125 0 -22 40 c-43 76
-151 102 -218 53 -40 -30 -73 -101 -66 -143 15 -81 73 -130 155 -130 53 0 101
28 126 75 l19 35 127 0 128 0 0 -75 0 -75 -74 0 -74 0 -107 -170 -107 -170
-37 0 c-32 0 -41 5 -62 37 -34 52 -70 75 -126 80 -39 4 -55 0 -82 -19 -56 -38
-76 -73 -76 -132 0 -133 151 -201 251 -114 19 17 37 41 40 54 6 22 11 24 74
24 l67 0 104 170 104 169 53 1 52 0 1 -112 c0 -134 12 -174 58 -205 l35 -23
618 2 618 3 32 33 33 32 3 135 4 135 51 0 52 -1 104 -169 104 -170 68 0 c54 0
69 -3 69 -15 0 -28 73 -93 114 -100 53 -10 123 19 153 64 30 45 31 120 2 168
-25 40 -85 73 -131 73 -47 0 -108 -39 -131 -82 -17 -34 -23 -38 -56 -38 -46 0
-46 0 -151 170 -46 74 -90 143 -98 152 -10 13 -33 18 -86 20 l-71 3 -3 73 -3
72 131 0 c126 0 131 -1 139 -22 5 -13 23 -36 40 -52 42 -40 129 -48 179 -17
73 46 94 148 44 218 -65 91 -220 75 -262 -27 l-13 -31 -126 3 -126 3 -3 73 -3
72 68 0 c37 0 74 4 80 8 7 5 59 82 115 173 l103 164 41 3 c39 3 43 1 61 -35
37 -72 130 -102 203 -65 103 51 108 201 8 262 -71 43 -175 14 -208 -57 -15
-31 -17 -33 -77 -33 -39 0 -67 -5 -75 -14 -8 -7 -58 -84 -112 -170 l-97 -156
-55 0 -54 0 0 125 c0 91 -4 134 -15 154 -15 30 -68 61 -104 61 -21 0 -21 4
-21 183 0 122 -5 205 -15 252 -42 201 -202 368 -401 420 -72 19 -211 18 -281
0z m233 -66 c178 -32 330 -173 376 -348 13 -51 17 -110 17 -259 l1 -193 -62 3
-63 3 -5 210 -5 210 -34 63 c-41 75 -94 125 -170 161 -47 22 -70 26 -141 26
-71 0 -94 -4 -141 -26 -76 -36 -129 -86 -170 -161 l-34 -63 -5 -210 -5 -210
-62 -3 -63 -3 0 184 c0 101 5 208 10 238 41 213 240 381 461 388 19 0 62 -4
95 -10z m-8 -204 c69 -21 129 -69 166 -135 l31 -55 3 -202 3 -203 -281 0 -281
0 3 203 3 202 31 55 c38 66 86 107 156 131 65 23 100 23 166 4z m-1321 -577
c42 -40 20 -126 -34 -129 -70 -5 -99 24 -94 94 3 52 85 75 128 35z m2583 12
c23 -12 38 -58 30 -90 -8 -36 -63 -62 -101 -48 -34 12 -49 35 -49 77 0 57 65
90 120 61z m-739 -110 c18 -10 19 -27 19 -516 l0 -504 -26 -10 c-41 -16 -1176
-13 -1197 3 -16 11 -18 55 -24 504 -6 467 -5 494 12 513 18 20 30 20 607 20
387 0 596 -4 609 -10z m560 -459 c33 -33 35 -50 14 -90 -24 -48 -81 -56 -120
-16 -39 38 -29 106 18 125 38 15 58 11 88 -19z m-2214 -3 c42 -39 27 -108 -27
-127 -60 -20 -118 29 -105 89 13 58 87 80 132 38z m-184 -560 c23 -28 22 -83
-3 -108 -30 -30 -83 -30 -113 0 -22 21 -25 83 -6 106 32 38 90 39 122 2z
m2583 9 c55 -47 20 -137 -53 -137 -61 0 -100 67 -69 116 31 47 82 55 122 21z"/>
<path d="M2485 2716 c-38 -17 -91 -73 -104 -109 -27 -70 -4 -175 45 -213 13
-10 11 -28 -11 -128 -21 -93 -24 -120 -15 -131 10 -12 43 -15 160 -15 185 0
181 -3 155 118 -29 139 -29 141 -7 165 77 82 63 216 -31 291 -31 25 -48 31
-100 33 -38 2 -73 -2 -92 -11z m129 -71 c41 -20 66 -63 66 -114 0 -34 -7 -49
-40 -85 l-40 -43 20 -89 c12 -49 23 -97 26 -106 5 -16 -4 -18 -86 -18 -82 0
-91 2 -86 18 3 9 14 57 26 106 l20 89 -40 43 c-33 36 -40 51 -40 85 0 97 88
155 174 114z"/>
</g>
</svg>
