<?xml version="1.0" standalone="no"?>
<!DOCTYPE svg PUBLIC "-//W3C//DTD SVG 20010904//EN"
 "http://www.w3.org/TR/2001/REC-SVG-20010904/DTD/svg10.dtd">
<svg version="1.0" xmlns="http://www.w3.org/2000/svg"
 width="64pt" height="64pt" viewBox="0 0 512.000000 512.000000"
 preserveAspectRatio="xMidYMid meet">

<g transform="translate(0.000000,512.000000) scale(0.100000,-0.100000)"
fill="#000000" stroke="none">
<path d="M1481 5104 c-215 -58 -361 -251 -361 -479 l0 -70 -152 0 c-168 -1
-233 -12 -367 -66 -117 -47 -217 -114 -317 -213 -133 -134 -215 -280 -261
-462 -24 -95 -24 -333 0 -428 89 -356 348 -620 706 -718 61 -17 106 -21 234
-22 l157 -1 0 -85 0 -85 -152 0 c-168 -1 -233 -12 -367 -66 -117 -47 -217
-114 -317 -213 -133 -134 -215 -280 -261 -462 -24 -95 -24 -333 0 -428 89
-356 348 -620 706 -718 61 -17 106 -21 234 -22 l157 -1 0 -70 c0 -230 147
-423 365 -480 89 -23 2061 -23 2150 0 219 57 365 250 365 481 l0 72 113 -5
c281 -13 522 81 722 282 137 138 216 277 262 461 24 95 24 333 0 428 -46 182
-128 328 -261 462 -199 199 -445 294 -723 281 l-113 -5 0 88 0 88 113 -5 c281
-13 522 81 722 282 137 138 216 277 262 461 24 95 24 333 0 428 -46 182 -128
328 -261 462 -199 199 -445 294 -723 281 l-113 -5 0 72 c0 232 -146 424 -367
481 -84 22 -2070 21 -2152 -1z m2175 -176 c76 -40 107 -70 144 -140 31 -58 34
-71 38 -173 l4 -110 -58 -23 c-155 -61 -345 -223 -436 -372 -103 -166 -142
-306 -142 -510 0 -160 12 -227 65 -359 90 -225 297 -438 509 -522 l60 -24 0
-135 0 -135 -58 -23 c-154 -63 -343 -224 -434 -372 -103 -166 -142 -306 -142
-510 0 -160 12 -227 65 -359 90 -225 298 -439 510 -522 l61 -24 -4 -110 c-4
-94 -8 -118 -31 -161 -38 -75 -69 -107 -139 -145 l-63 -34 -1045 0 -1045 0
-63 34 c-70 38 -101 70 -139 145 -23 43 -27 67 -31 161 l-4 110 47 17 c215 80
436 305 529 539 48 123 60 193 60 349 0 204 -39 344 -142 510 -92 149 -298
324 -443 376 l-49 18 0 136 0 136 46 17 c214 79 436 305 528 538 48 123 60
193 60 349 0 204 -39 344 -142 510 -92 150 -298 324 -444 377 l-50 18 4 110
c4 89 9 119 29 160 40 86 123 154 214 176 17 4 491 6 1055 6 l1025 -2 51 -27z
m-2506 -551 c209 -57 367 -171 481 -345 88 -134 124 -258 124 -432 0 -169 -35
-296 -117 -421 l-41 -64 -13 65 c-29 139 -136 302 -253 381 -28 19 -49 36 -48
39 65 122 72 144 72 240 0 86 -3 101 -32 162 -44 93 -100 151 -191 196 -72 35
-81 37 -172 37 -91 0 -100 -2 -172 -37 -91 -45 -147 -103 -191 -196 -29 -61
-32 -76 -32 -162 0 -96 7 -118 72 -240 1 -3 -20 -20 -48 -39 -117 -79 -224
-242 -253 -381 l-13 -65 -41 64 c-82 125 -117 252 -117 421 0 174 36 297 125
434 118 180 303 306 520 352 80 17 262 12 340 -9z m3200 0 c209 -57 367 -171
481 -345 88 -134 124 -258 124 -432 0 -169 -35 -296 -117 -421 l-41 -64 -13
65 c-29 139 -136 302 -253 381 -28 19 -49 36 -48 39 65 122 72 144 72 240 0
86 -3 101 -32 162 -44 93 -100 151 -191 196 -72 35 -81 37 -172 37 -91 0 -100
-2 -172 -37 -91 -45 -147 -103 -191 -196 -29 -61 -32 -76 -32 -162 0 -96 7
-118 72 -240 1 -3 -20 -20 -48 -39 -117 -79 -224 -242 -253 -381 l-13 -65 -41
64 c-82 125 -117 252 -117 421 0 174 36 297 125 434 118 180 303 306 520 352
80 17 262 12 340 -9z m-3316 -309 c86 -26 166 -136 166 -228 0 -124 -116 -240
-240 -240 -63 0 -114 23 -165 75 -102 101 -102 229 0 330 70 71 145 90 239 63z
m3200 0 c86 -26 166 -136 166 -228 0 -124 -116 -240 -240 -240 -63 0 -114 23
-165 75 -102 101 -102 229 0 330 70 71 145 90 239 63z m-3374 -613 c67 -20
175 -15 239 11 l44 17 53 -27 c104 -55 196 -177 229 -303 18 -70 20 -173 3
-196 -38 -49 -212 -123 -342 -146 -164 -29 -367 6 -514 90 -85 49 -92 59 -92
132 0 125 47 244 134 335 59 63 142 115 171 108 11 -3 45 -12 75 -21z m3200 0
c67 -20 175 -15 239 11 l44 17 53 -27 c104 -55 196 -177 229 -303 18 -70 20
-173 3 -196 -38 -49 -212 -123 -342 -146 -164 -29 -367 6 -514 90 -85 49 -92
59 -92 132 0 125 47 244 134 335 59 63 142 115 171 108 11 -3 45 -12 75 -21z
m-2910 -1158 c209 -57 367 -171 481 -345 88 -134 124 -258 124 -432 0 -169
-35 -296 -117 -421 l-41 -64 -13 65 c-29 139 -136 302 -253 381 -28 19 -49 36
-48 39 65 122 72 144 72 240 0 86 -3 101 -32 162 -44 93 -100 151 -191 196
-72 35 -81 37 -172 37 -91 0 -100 -2 -172 -37 -91 -45 -147 -103 -191 -196
-29 -61 -32 -76 -32 -162 0 -96 7 -118 72 -240 1 -3 -20 -20 -48 -39 -117 -79
-224 -242 -253 -381 l-13 -65 -41 64 c-82 125 -117 252 -117 421 0 174 36 297
125 434 118 180 303 306 520 352 80 17 262 12 340 -9z m3200 0 c209 -57 367
-171 481 -345 88 -134 124 -258 124 -432 0 -169 -35 -296 -117 -421 l-41 -64
-13 65 c-29 139 -136 302 -253 381 -28 19 -49 36 -48 39 65 122 72 144 72 240
0 86 -3 101 -32 162 -44 93 -100 151 -191 196 -72 35 -81 37 -172 37 -91 0
-100 -2 -172 -37 -91 -45 -147 -103 -191 -196 -29 -61 -32 -76 -32 -162 0 -96
7 -118 72 -240 1 -3 -20 -20 -48 -39 -117 -79 -224 -242 -253 -381 l-13 -65
-41 64 c-82 125 -117 252 -117 421 0 174 36 297 125 434 118 180 303 306 520
352 80 17 262 12 340 -9z m-3316 -309 c55 -16 138 -99 154 -154 28 -94 8 -169
-63 -239 -101 -102 -229 -102 -330 0 -102 101 -102 229 0 330 70 71 145 90
239 63z m3200 0 c86 -26 166 -136 166 -228 0 -124 -116 -240 -240 -240 -124 0
-240 116 -240 240 0 63 23 114 75 165 70 71 145 90 239 63z m-3374 -613 c67
-20 175 -15 239 11 l44 17 53 -27 c104 -55 196 -177 229 -303 18 -70 20 -173
3 -196 -38 -49 -212 -123 -342 -146 -164 -29 -367 6 -514 90 -85 49 -92 59
-92 132 0 125 47 244 134 335 59 63 142 115 171 108 11 -3 45 -12 75 -21z
m3200 0 c67 -20 175 -15 239 11 l44 17 53 -27 c104 -55 196 -177 229 -303 18
-70 20 -173 3 -196 -38 -49 -212 -123 -342 -146 -164 -29 -367 6 -514 90 -85
49 -92 59 -92 132 0 125 47 244 134 335 59 63 142 115 171 108 11 -3 45 -12
75 -21z"/>
<path d="M1945 4615 c-16 -15 -25 -36 -25 -55 0 -19 9 -40 25 -55 23 -24 31
-25 135 -25 104 0 112 1 135 25 16 15 25 36 25 55 0 19 -9 40 -25 55 -23 24
-31 25 -135 25 -104 0 -112 -1 -135 -25z"/>
<path d="M2345 4615 c-16 -15 -25 -36 -25 -55 0 -19 9 -40 25 -55 l24 -25 431
0 431 0 24 25 c16 15 25 36 25 55 0 19 -9 40 -25 55 l-24 25 -431 0 -431 0
-24 -25z"/>
<path d="M2693 3133 c-48 -37 -162 -125 -252 -194 -154 -119 -172 -130 -285
-174 -124 -47 -156 -70 -156 -110 0 -44 128 -379 152 -398 22 -19 33 -19 108
-1 24 5 29 -2 90 -126 36 -73 74 -138 85 -146 46 -33 73 -20 182 89 118 118
120 124 73 216 l-29 59 57 6 c31 3 120 11 197 17 77 6 149 16 160 22 27 14 44
38 45 63 0 11 -54 173 -120 360 -155 437 -153 434 -307 317z m157 -374 c43
-123 78 -224 77 -225 -8 -8 -430 -35 -437 -28 -5 5 -24 54 -43 109 l-35 100
177 136 c97 75 177 135 179 134 1 -1 38 -103 82 -226z m-557 -201 c15 -40 28
-79 29 -86 3 -12 -68 -50 -77 -41 -2 2 -17 41 -34 87 l-30 83 32 14 c18 8 37
14 43 15 6 0 23 -33 37 -72z m223 -279 l26 -52 -20 -20 -20 -20 -36 72 -36 71
30 0 c26 0 33 -7 56 -51z"/>
<path d="M1785 695 c-16 -15 -25 -36 -25 -55 0 -19 9 -40 25 -55 l24 -25 751
0 751 0 24 25 c33 32 33 78 0 110 l-24 25 -751 0 -751 0 -24 -25z"/>
</g>
</svg>
