<?xml version="1.0" standalone="no"?>
<!DOCTYPE svg PUBLIC "-//W3C//DTD SVG 20010904//EN"
 "http://www.w3.org/TR/2001/REC-SVG-20010904/DTD/svg10.dtd">
<svg version="1.0" xmlns="http://www.w3.org/2000/svg"
 width="64pt" height="64pt" viewBox="0 0 512.000000 512.000000"
 preserveAspectRatio="xMidYMid meet">

<g transform="translate(0.000000,512.000000) scale(0.100000,-0.100000)"
fill="#000000" stroke="none">
<path d="M2440 5113 c-343 -18 -705 -111 -995 -255 l-90 -45 -64 53 c-78 65
-201 127 -296 150 -92 22 -258 22 -350 0 -155 -37 -320 -146 -412 -269 -103
-141 -147 -272 -146 -442 0 -178 49 -316 161 -457 l62 -78 -46 -92 c-121 -241
-208 -537 -245 -833 -16 -129 -16 -441 0 -570 37 -296 124 -592 245 -833 l46
-92 -56 -68 c-63 -76 -124 -196 -150 -292 -23 -88 -23 -262 0 -350 64 -241
245 -436 475 -515 246 -83 516 -35 711 128 l65 54 85 -42 c248 -124 535 -208
840 -246 123 -15 437 -15 565 1 283 34 549 110 800 229 l120 57 65 -54 c78
-64 199 -125 295 -148 94 -23 259 -23 350 0 300 76 525 333 554 633 20 207
-32 379 -165 545 l-54 67 44 88 c94 188 172 420 215 638 33 167 44 291 44 485
0 102 -6 230 -12 285 -36 294 -124 592 -245 833 l-46 92 54 66 c117 142 170
289 169 469 0 125 -17 202 -67 310 -157 337 -557 504 -909 379 -90 -33 -155
-70 -232 -132 l-59 -49 -121 58 c-211 100 -430 169 -655 208 -122 21 -375 42
-455 39 -22 -1 -65 -3 -95 -5z m315 -153 c301 -28 558 -96 818 -218 53 -25 97
-46 97 -47 0 -1 -15 -35 -34 -76 -53 -115 -70 -189 -70 -314 0 -126 17 -203
68 -310 122 -258 380 -419 666 -417 121 1 225 24 319 71 33 17 63 31 66 31 14
0 116 -234 158 -360 196 -590 159 -1222 -103 -1778 -27 -56 -51 -102 -53 -102
-3 0 -31 13 -63 29 -282 140 -629 81 -849 -144 -221 -225 -273 -534 -139 -824
19 -41 34 -75 34 -76 0 -1 -44 -22 -97 -47 -598 -279 -1286 -300 -1896 -57
-79 32 -212 93 -225 104 -1 1 13 35 32 76 134 290 82 599 -139 824 -220 224
-570 284 -847 144 -31 -16 -60 -29 -63 -29 -4 0 -28 46 -55 103 -304 642 -304
1392 0 2035 27 56 51 102 55 102 3 0 33 -14 66 -31 152 -76 356 -93 524 -44
204 60 363 193 456 380 55 113 72 189 73 320 0 125 -16 198 -70 314 -19 41
-34 75 -34 76 0 1 44 22 98 47 378 177 809 255 1207 218z m-1810 -85 c148 -31
308 -144 380 -269 75 -130 101 -282 71 -417 -15 -68 -58 -179 -70 -179 -3 0
-29 24 -58 53 -41 40 -70 58 -128 79 -42 15 -84 33 -94 41 -20 15 -19 17 51
136 32 53 36 133 10 171 -9 13 -17 40 -17 60 0 50 -42 133 -82 163 -57 44
-101 57 -188 57 -157 0 -248 -72 -270 -214 -5 -28 -15 -70 -24 -93 -13 -35
-13 -48 -2 -91 7 -28 21 -63 32 -77 24 -34 53 -87 54 -98 0 -7 -57 -35 -168
-82 -24 -11 -61 -38 -82 -62 -20 -24 -41 -43 -44 -43 -13 0 -58 114 -72 180
-46 216 41 445 219 577 145 108 309 144 482 108z m3546 -19 c89 -31 194 -101
254 -170 61 -69 113 -179 133 -277 24 -126 0 -275 -65 -384 -11 -19 -14 -17
-51 26 -22 25 -60 53 -84 64 -93 39 -168 74 -168 78 0 12 28 67 54 105 37 54
46 135 23 190 -9 20 -18 58 -22 83 -8 64 -53 131 -111 165 -41 24 -62 29 -139
32 -78 4 -99 1 -143 -18 -82 -35 -142 -117 -142 -192 0 -17 -10 -52 -22 -77
-19 -40 -20 -50 -10 -99 6 -30 22 -69 36 -86 13 -18 31 -49 40 -69 15 -37 15
-37 -12 -51 -15 -7 -59 -25 -99 -40 -67 -25 -153 -91 -153 -117 0 -24 -22 -4
-45 41 -50 99 -68 245 -44 362 6 29 29 91 51 137 74 155 229 278 398 316 94
21 228 13 321 -19z m-3580 -255 c19 -15 24 -32 30 -90 4 -45 12 -78 23 -90 15
-17 15 -20 -6 -47 -13 -15 -36 -55 -53 -89 -56 -113 -114 -112 -171 3 -17 35
-39 71 -48 81 -20 22 -20 40 -1 65 9 12 15 42 15 78 0 49 4 63 25 83 21 22 33
25 93 25 53 0 75 -4 93 -19z m3484 -6 c21 -20 25 -34 25 -83 0 -36 6 -66 15
-78 21 -27 18 -47 -9 -73 -13 -12 -26 -34 -29 -49 -8 -41 -49 -96 -79 -106
-39 -14 -75 14 -106 82 -14 32 -36 70 -49 86 -23 28 -23 29 -6 48 12 13 18 37
19 69 2 77 3 79 29 104 21 22 33 25 95 25 62 0 74 -3 95 -25z m-3606 -536 c20
-4 53 -2 83 6 50 13 52 12 137 -27 140 -64 154 -72 172 -98 10 -14 21 -36 24
-50 5 -22 -2 -30 -58 -67 -35 -23 -99 -54 -143 -69 -67 -23 -96 -28 -184 -28
-88 0 -118 5 -183 27 -77 27 -170 79 -195 109 -9 12 -10 23 -2 44 18 46 48 72
119 99 36 14 86 37 111 50 27 14 53 21 65 18 11 -3 35 -10 54 -14z m3480 0
c20 -4 53 -2 84 6 49 13 53 12 109 -16 32 -16 82 -38 111 -49 59 -22 90 -49
107 -94 9 -25 8 -32 -12 -53 -35 -37 -174 -102 -258 -119 -135 -29 -304 3
-423 80 -75 47 -81 57 -64 98 20 45 53 72 112 92 28 9 75 30 105 46 34 18 63
27 75 23 11 -3 35 -10 54 -14z m-3325 -2674 c109 -23 210 -79 291 -160 81 -81
127 -161 155 -271 25 -97 25 -180 1 -277 -18 -68 -55 -157 -66 -157 -2 0 -28
24 -57 52 -41 41 -70 59 -128 80 -42 15 -84 33 -94 41 -20 15 -19 17 51 136
32 53 36 133 10 171 -9 13 -17 40 -17 60 0 81 -65 168 -153 205 -53 22 -190
20 -242 -4 -86 -39 -145 -119 -145 -196 0 -20 -8 -47 -17 -62 -11 -16 -17 -45
-17 -77 0 -50 9 -71 69 -171 14 -22 25 -43 25 -47 0 -10 -65 -42 -130 -63 -39
-13 -69 -33 -108 -72 -29 -29 -56 -53 -58 -53 -11 0 -57 119 -70 180 -27 127
-9 255 51 376 46 90 107 159 192 218 138 94 296 125 457 91z m3547 -19 c278
-97 445 -385 385 -666 -14 -66 -59 -180 -72 -180 -3 0 -24 19 -44 43 -21 24
-58 51 -82 62 -111 47 -168 75 -168 82 1 11 30 64 54 98 11 14 25 49 32 77 11
43 11 56 -2 91 -9 23 -20 66 -24 96 -12 73 -54 139 -114 176 -47 28 -55 30
-156 30 -101 0 -109 -2 -155 -30 -67 -42 -106 -100 -113 -167 -3 -29 -12 -64
-21 -77 -9 -14 -15 -45 -15 -75 0 -50 9 -71 69 -171 14 -22 25 -44 25 -48 0
-8 -72 -42 -152 -71 -29 -11 -63 -35 -92 -66 -26 -28 -49 -50 -52 -50 -9 0
-53 104 -69 165 -32 124 -17 251 47 385 74 156 227 276 398 315 94 21 228 13
321 -19z m-3592 -251 c35 -18 41 -32 41 -99 0 -30 6 -60 15 -72 19 -25 19 -43
-2 -66 -9 -10 -31 -47 -47 -81 -19 -38 -42 -68 -58 -77 -42 -23 -76 0 -114 77
-16 34 -38 71 -47 81 -21 23 -21 41 -2 66 9 12 15 42 15 76 0 83 28 109 118
110 29 0 66 -7 81 -15z m3480 0 c35 -18 41 -32 41 -99 0 -30 6 -60 15 -72 19
-25 19 -48 -1 -65 -8 -7 -28 -40 -43 -74 -29 -63 -60 -95 -95 -95 -25 0 -83
63 -91 99 -3 17 -20 47 -36 67 -28 36 -29 38 -12 57 12 12 18 37 19 68 2 77 3
79 29 104 20 21 34 25 85 25 34 0 74 -6 89 -15z m-3595 -546 c31 -7 52 -6 89
5 48 14 48 14 135 -25 141 -65 155 -73 173 -99 10 -14 21 -36 24 -50 5 -21 -1
-30 -42 -57 -212 -143 -461 -147 -667 -12 -59 39 -66 47 -61 69 9 38 38 73 76
92 124 61 206 96 218 92 7 -2 32 -9 55 -15z m3480 0 c31 -7 52 -6 90 5 48 15
49 15 115 -18 36 -18 83 -39 104 -45 51 -17 93 -55 107 -97 11 -31 10 -36 -12
-54 -44 -38 -183 -100 -258 -116 -146 -31 -310 2 -437 88 -56 38 -63 46 -58
68 9 38 38 73 76 92 124 61 206 96 218 92 7 -2 32 -9 55 -15z"/>
<path d="M2320 3943 c-315 -55 -623 -233 -831 -482 -166 -198 -271 -422 -313
-670 -21 -123 -21 -339 0 -462 100 -590 565 -1054 1159 -1155 122 -21 400 -15
515 11 549 122 968 546 1087 1098 14 64 18 128 18 287 0 189 -2 213 -27 311
-143 567 -598 984 -1165 1068 -100 15 -342 12 -443 -6z m170 -438 l0 -285 -57
0 c-77 0 -276 20 -286 29 -11 11 46 170 99 277 25 50 65 116 90 147 45 58 116
117 141 117 11 0 13 -52 13 -285z m197 264 c54 -33 136 -140 186 -242 54 -110
111 -267 100 -278 -10 -9 -209 -29 -285 -29 l-58 0 0 285 c0 205 3 285 11 285
7 0 27 -10 46 -21z m433 -87 c101 -49 256 -161 330 -237 42 -44 44 -47 27 -60
-25 -18 -250 -91 -307 -100 l-46 -7 -12 49 c-22 85 -100 265 -152 350 -28 45
-50 84 -50 87 0 10 111 -34 210 -82z m-910 72 c0 -3 -11 -20 -25 -39 -43 -56
-120 -219 -156 -330 -21 -63 -39 -105 -47 -105 -50 0 -336 92 -349 113 -13 22
162 171 297 252 105 64 280 132 280 109z m-590 -520 c47 -20 141 -51 209 -70
68 -19 125 -35 126 -36 1 -2 -6 -57 -16 -123 -10 -67 -22 -177 -26 -245 l-8
-125 -297 -3 -298 -2 0 34 c0 83 43 263 91 379 32 76 116 227 128 227 4 0 45
-16 91 -36z m2020 -34 c47 -81 93 -185 120 -273 23 -76 50 -217 50 -263 l0
-34 -297 2 -298 3 -7 120 c-7 112 -32 318 -44 357 -4 13 2 19 23 23 81 18 238
68 308 98 44 19 85 35 92 36 7 1 31 -31 53 -69z m-1302 -122 l152 -12 -2 -216
-3 -215 -209 -3 c-115 -1 -213 1 -216 5 -10 11 6 228 26 357 l17 108 41 -6
c22 -3 110 -11 194 -18z m690 -50 c18 -111 31 -235 34 -318 l3 -75 -215 0
-215 0 -3 218 -2 217 57 1 c32 0 108 7 168 13 180 21 161 27 173 -56z m-1116
-663 c7 -112 32 -318 44 -357 4 -13 -2 -19 -23 -23 -83 -18 -248 -71 -322
-102 l-84 -36 -18 24 c-29 38 -116 218 -139 288 -29 87 -60 236 -60 289 l0 42
298 -2 297 -3 7 -120z m576 -95 l2 -216 -157 -13 c-87 -7 -174 -15 -194 -18
l-36 -5 -17 109 c-17 112 -36 342 -29 356 3 4 100 6 216 5 l212 -3 3 -215z
m574 140 c-3 -84 -16 -208 -34 -318 l-11 -74 -36 5 c-20 3 -107 11 -193 18
l-158 13 0 211 c0 117 3 215 7 219 4 3 101 5 217 4 l211 -3 -3 -75z m744 8
c-14 -157 -78 -347 -165 -496 -32 -55 -47 -72 -59 -69 -10 3 -51 20 -92 37
-67 28 -228 78 -303 95 -21 4 -27 10 -23 23 12 41 36 236 42 342 3 63 7 121
10 128 2 9 71 12 300 12 l297 0 -7 -72z m-1316 -803 c0 -205 -3 -285 -11 -285
-52 0 -166 130 -232 263 -50 102 -111 266 -102 276 9 9 180 28 268 30 l77 1 0
-285z m365 274 c61 -6 114 -15 118 -18 11 -11 -46 -168 -100 -278 -66 -133
-180 -263 -232 -263 -8 0 -11 80 -11 285 l0 285 58 0 c31 0 107 -5 167 -11z
m-826 -154 c36 -111 113 -274 156 -330 14 -19 25 -37 25 -41 0 -27 -210 64
-336 147 -117 77 -254 202 -239 218 22 22 287 108 340 110 17 1 26 -16 54
-104z m1211 84 c104 -28 216 -69 237 -85 17 -13 12 -20 -55 -83 -93 -89 -183
-153 -296 -210 -100 -51 -202 -89 -212 -79 -3 4 6 22 20 41 44 58 124 226 158
334 38 118 32 115 148 82z"/>
</g>
</svg>
